<?xml version="1.0" encoding="utf-8"?>
<!-- Generator: Adobe Illustrator 25.2.0, SVG Export Plug-In . SVG Version: 6.00 Build 0)  -->
<svg version="1.1" id="Layer_2" xmlns="http://www.w3.org/2000/svg" xmlns:xlink="http://www.w3.org/1999/xlink" x="0px" y="0px"
	 viewBox="0 0 1000 1000" style="enable-background:new 0 0 1000 1000;" xml:space="preserve" height="600px">
<style type="text/css">
	.st0{clip-path:url(#SVGID_2_);}
	.st1{fill:#FFF0D3;}
	.st2{fill:#4357B5;}
	.st3{clip-path:url(#SVGID_4_);}
	.st4{fill:#2F469B;}
	.st5{fill:#C4D3D9;}
	.st6{clip-path:url(#SVGID_6_);}
	.st7{fill:#9DA3B5;}
	.st8{clip-path:url(#SVGID_8_);}
	.st9{fill:#F1F2F2;}
	.st10{clip-path:url(#SVGID_10_);}
	.st11{fill:#A7BBC1;}
	.st12{fill:#EAAD92;}
	.st13{clip-path:url(#SVGID_12_);}
	.st14{clip-path:url(#SVGID_14_);}
	.st15{fill:#DDE3E8;}
	.st16{fill:#FFC4A6;}
	.st17{clip-path:url(#SVGID_16_);}
	.st18{clip-path:url(#SVGID_18_);}
	.st19{clip-path:url(#SVGID_20_);}
	.st20{clip-path:url(#SVGID_22_);}
	.st21{fill:#414042;}
	.st22{clip-path:url(#SVGID_26_);}
	.st23{fill:#E6E7E8;}
	.st24{fill:#2E3192;}
	.st25{clip-path:url(#SVGID_28_);}
	.st26{clip-path:url(#SVGID_30_);}
	.st27{clip-path:url(#SVGID_32_);}
	.st28{clip-path:url(#SVGID_34_);}
	.st29{fill:#F9B1A6;}
	.st30{fill:#F1C8DE;}
	.st31{clip-path:url(#SVGID_36_);}
	.st32{clip-path:url(#SVGID_38_);}
	.st33{clip-path:url(#SVGID_40_);}
	.st34{fill:#C9D1D6;}
</style>
<g>
	<defs>
		<rect id="SVGID_1_" width="1000" height="1000"/>
	</defs>
	<clipPath id="SVGID_2_">
		<use xlink:href="#SVGID_1_"  style="overflow:visible;"/>
	</clipPath>
	<g class="st0">
		<path class="st1" d="M158.02,866.17c-20.28-30.92-31.73-78.89-14.97-117.61c20.56-47.5,64.89-38.77,106.95-92.56
			c37.15-47.51,56.11-122.78,28-156c-23.65-27.94-60.75-2.68-108-33c-37.24-23.9-70.73-75.87-61-118
			c16.56-71.74,149.85-77.71,150-123c0.13-38.75-97.37-47.09-98.85-80.45c-2.61-59.1,298.13-178.47,428.74-68.43
			c46.7,39.34,36.81,78.64,91.95,112.26c94.13,57.4,185.42-19.05,239.5,31.01c51.6,47.77,38.37,178.23-22.45,219.18
			C838.06,479.84,758.47,415.82,732,449c-28.31,35.49,25.79,155.07,117.77,214.03c55.39,35.5,87.59,24.39,106.92,57.74
			c36.23,62.51-12.97,195.81-91.95,220.25C784.28,965.91,740.97,856.33,610,858c-80.41,1.02-81.52,42.55-195.38,60.56
			C373.91,925,214.05,951.61,158.02,866.17z"/>
	</g>
	<g class="st0">
		<path class="st2" d="M435.42,406.43c0,0-79.54,2.17-102.85,134.41s-19.46,453.61,0,469.65c19.46,16.04,293.16,1.4,293.16,1.4
			s9.78-203.92-19.25-291.75l-42.13-87.35c0,0,108.04-32.76,136.03-117.01c0,0-25.47-57.56-55.41-46.86c0,0-32.08,57.76-93.02,53.58
			c0,0-26.73,0-32.08-3.14s11.76-98.3,11.76-98.3L435.42,406.43z"/>
	</g>
	<g class="st0">
		<defs>
			<path id="SVGID_3_" d="M435.42,406.43c0,0-79.54,2.17-102.85,134.41s-19.46,453.61,0,469.65c19.46,16.04,293.16,1.4,293.16,1.4
				s9.78-203.92-19.25-291.75l-42.13-87.35c0,0,108.04-32.76,136.03-117.01c0,0-25.47-57.56-55.41-46.86
				c0,0-32.08,57.76-93.02,53.58c0,0-26.73,0-32.08-3.14s11.76-98.3,11.76-98.3L435.42,406.43z"/>
		</defs>
		<clipPath id="SVGID_4_">
			<use xlink:href="#SVGID_3_"  style="overflow:visible;"/>
		</clipPath>
		<g class="st3">
			<path class="st4" d="M453.59,412.71c-58.8,3.14-75.91,75.29-38.49,141.17l83.4-15.69h13.9l26.73-1.05
				c0,0-10.69-88.88-16.04-94.11C511.33,431.53,453.59,412.71,453.59,412.71z"/>
		</g>
		<g class="st3">
			<path class="st4" d="M590.69,706.25c27.15,2.39,14.93,117.21-0.22,148.18c-24.67,50.44-89.68,118.46-109.06,114.3
				c-19.24-4.13-18.12-45.86,42.33-122.39c50.71-64.2,51.34-152.61,51.34-152.61L590.69,706.25z"/>
		</g>
		<g class="st3">
			<path class="st4" d="M520.52,1042.65c21.56-157.35,56.92-309.6-12.09-420.39l72.29-60.56l111.29,51.39l-58.18,420.97
				L520.52,1042.65z"/>
		</g>
	</g>
	<g class="st0">
		<path class="st5" d="M577.86,688.22c27.15,2.44,14.93,119.84-0.22,151.51c-24.67,51.58-89.68,121.12-109.06,116.87
			c-19.24-4.22-18.12-46.89,42.33-125.14c50.71-65.64,51.34-156.04,51.34-156.04L577.86,688.22z"/>
	</g>
	<g class="st0">
		<defs>
			<path id="SVGID_5_" d="M577.86,688.22c27.15,2.44,14.93,119.84-0.22,151.51c-24.67,51.58-89.68,121.12-109.06,116.87
				c-19.24-4.22-18.12-46.89,42.33-125.14c50.71-65.64,51.34-156.04,51.34-156.04L577.86,688.22z"/>
		</defs>
		<clipPath id="SVGID_6_">
			<use xlink:href="#SVGID_5_"  style="overflow:visible;"/>
		</clipPath>
		<g class="st6">
			<path class="st7" d="M554.44,886.24c-24.8-7.45-43.97-23.01-61.08-41.53c-6.08-4.13-7.67-12.49-3.54-18.57l0,0
				c4.13-6.08,12.49-7.67,18.57-3.54c5.62,15.69,32.73,28.69,61.08,41.53c6.08,4.13,7.67,12.49,3.54,18.57v0
				C568.87,888.78,560.52,890.37,554.44,886.24z"/>
		</g>
		<g class="st6">
			<path class="st7" d="M515.04,929.65c-23.93-6.56-42.19-24.14-58.82-44.88c-5.84-4.46-6.98-12.89-2.52-18.73l0,0
				c4.46-5.84,12.89-6.98,18.73-2.52c12.78,21.75,31.77,37.32,58.82,44.88c5.84,4.46,6.98,12.89,2.52,18.73l0,0
				C529.31,932.98,520.88,934.11,515.04,929.65z"/>
		</g>
		<g class="st6">
			<path class="st7" d="M589.18,827.67c-32.29-4.99-54.88-13.59-71.26-23.84c-6.97-2.33-10.77-9.94-8.43-16.91l0,0
				c2.33-6.97,9.94-10.77,16.91-8.43c18.58,16.06,42.66,23.51,71.26,23.84c6.97,2.33,10.77,9.94,8.43,16.91l0,0
				C603.76,826.21,596.15,830,589.18,827.67z"/>
		</g>
		<g class="st6">
			<path class="st7" d="M606.01,779.96c-31.01-6.37-55.45-15.45-72.2-27.68c-6.86-2.63-10.33-10.4-7.7-17.26l0,0
				c2.63-6.86,10.4-10.33,17.26-7.7c14.01,18.41,43.4,22.77,72.2,27.68c6.86,2.63,10.33,10.4,7.7,17.26l0,0
				C620.65,779.12,612.88,782.59,606.01,779.96z"/>
		</g>
	</g>
	<g class="st0">
		<path class="st5" d="M667.08,583.94c0,0,59.68-3.17,54.92,69.39s48.77,67.8,48.77,67.8s36.87-9.52,36.87,16.65s-154.91,0-154.91,0
			l-59.58-92.92L667.08,583.94z"/>
	</g>
	<g class="st0">
		<defs>
			<path id="SVGID_7_" d="M667.08,583.94c0,0,59.68-3.17,54.92,69.39s48.77,67.8,48.77,67.8s36.87-9.52,36.87,16.65
				s-154.91,0-154.91,0l-59.58-92.92L667.08,583.94z"/>
		</defs>
		<clipPath id="SVGID_8_">
			<use xlink:href="#SVGID_7_"  style="overflow:visible;"/>
		</clipPath>
		<g class="st8">

				<ellipse transform="matrix(0.5467 -0.8373 0.8373 0.5467 -244.1077 1007.01)" class="st9" cx="808" cy="728.96" rx="11.86" ry="15.9"/>
		</g>
		<g class="st8">

				<ellipse transform="matrix(0.5467 -0.8373 0.8373 0.5467 -255.0639 1007.4083)" class="st9" cx="802.89" cy="739.28" rx="13.4" ry="15.9"/>
		</g>
		<g class="st8">

				<ellipse transform="matrix(0.5467 -0.8373 0.8373 0.5467 -267.1526 1008.6064)" class="st9" cx="797.95" cy="751.04" rx="13.49" ry="15.9"/>
		</g>
	</g>
	<g class="st0">
		<path class="st5" d="M611.16,602.04c0,0,86.52,14.91,87.23,101.53c0.7,86.62,47.72,52.98,64.5,72.09
			c16.78,19.11,3.1,27.79,3.1,27.79s-119.71-12.28-169.04-34.86c-49.33-22.57-55.48-126.37-55.48-126.37L611.16,602.04z"/>
	</g>
	<g class="st0">
		<defs>
			<path id="SVGID_9_" d="M611.16,602.04c0,0,86.52,14.91,87.23,101.53c0.7,86.62,47.72,52.98,64.5,72.09
				c16.78,19.11,3.1,27.79,3.1,27.79s-119.71-12.28-169.04-34.86c-49.33-22.57-55.48-126.37-55.48-126.37L611.16,602.04z"/>
		</defs>
		<clipPath id="SVGID_10_">
			<use xlink:href="#SVGID_9_"  style="overflow:visible;"/>
		</clipPath>
		<g class="st10">

				<ellipse transform="matrix(0.6589 -0.7522 0.7522 0.6589 -324.1186 844.5486)" class="st9" cx="769.17" cy="779.66" rx="11.86" ry="15.9"/>
		</g>
		<g class="st10">

				<ellipse transform="matrix(0.6589 -0.7522 0.7522 0.6589 -333.4836 842.8921)" class="st9" cx="762.66" cy="789.16" rx="13.4" ry="15.9"/>
		</g>
		<g class="st10">

				<ellipse transform="matrix(0.6589 -0.7522 0.7522 0.6589 -343.9546 841.7078)" class="st9" cx="756.12" cy="800.11" rx="13.49" ry="15.9"/>
		</g>
		<g class="st10">
			<path class="st7" d="M596.81,691.42l-54.07,7.05c-7.29,0.95-14.03-4.23-14.98-11.52v0c-0.95-7.29,4.23-14.03,11.52-14.98
				l54.07-7.05c7.29-0.95,14.03,4.23,14.98,11.52v0C609.28,683.72,604.1,690.47,596.81,691.42z"/>
		</g>
		<g class="st10">
			<path class="st7" d="M609.64,742.74l-54.07,7.05c-7.29,0.95-14.03-4.23-14.98-11.52l0,0c-0.95-7.29,4.23-14.03,11.52-14.98
				l54.07-7.05c7.29-0.95,14.03,4.23,14.98,11.52v0C622.11,735.04,616.93,741.79,609.64,742.74z"/>
		</g>
	</g>
	<g class="st0">
		<path class="st11" d="M651.59,618.42c5.62,3.1,10.87,6.86,15.82,11c4.9,4.2,9.42,8.88,13.38,14.02
			c3.94,5.17,7.24,10.79,10.08,16.65c1.26,3,2.61,5.97,3.56,9.08l0.78,2.31l0.39,1.16l0.31,1.18l1.22,4.72l0.3,1.18l0.22,1.2
			l0.42,2.4c0.26,1.6,0.62,3.19,0.78,4.81l0.51,4.84c0.08,0.81,0.18,1.61,0.24,2.42l0.08,2.43l0.14,4.86
			c0.05,1.62,0.03,3.19,0.05,4.79c0.05,3.18,0.16,6.36,0.32,9.53c0.21,3.17,0.46,6.34,0.86,9.48c0.36,3.15,0.89,6.29,1.56,9.38
			c1.26,6.22,3.39,12.28,6.77,17.74c-1.99-2.51-3.63-5.32-4.97-8.26c-1.36-2.93-2.44-5.99-3.33-9.1
			c-1.76-6.23-2.76-12.64-3.39-19.06l-0.39-4.82c-0.08-1.61-0.19-3.22-0.24-4.83c-0.06-1.6-0.08-3.24-0.16-4.81l-0.25-4.74
			l-0.12-2.37c-0.06-0.79-0.17-1.57-0.25-2.36l-0.53-4.71c-0.17-1.57-0.54-3.11-0.8-4.66l-0.43-2.33l-0.22-1.16l-0.29-1.14
			l-1.15-4.58l-0.29-1.14l-0.37-1.12l-0.74-2.24c-0.88-3.03-2.21-5.89-3.35-8.83c-2.59-5.74-5.73-11.23-9.32-16.42
			C671.4,634.67,662.11,625.75,651.59,618.42z"/>
	</g>
	<g class="st0">
		<path class="st12" d="M482.46,424.61l-10.69,10.69c28.87,38.49,53.46,17.11,56.67-10.69l-23.52-2.14L482.46,424.61z"/>
	</g>
	<g class="st0">
		<path class="st5" d="M570.13,346.56c-4.28,29.94-73.77,60.94-53.44,196.73c27.36,182.71,151.8,64.15,151.8,64.15l31.88-201.15
			l-34.14-41.68L570.13,346.56z"/>
	</g>
	<g class="st0">
		<defs>
			<path id="SVGID_11_" d="M570.13,346.56c-4.28,29.94-73.77,60.94-53.44,196.73c27.36,182.71,151.8,64.15,151.8,64.15l31.88-201.15
				l-34.14-41.68L570.13,346.56z"/>
		</defs>
		<clipPath id="SVGID_12_">
			<use xlink:href="#SVGID_11_"  style="overflow:visible;"/>
		</clipPath>
		<g class="st13">
			<path class="st7" d="M541.5,544.56l-53.25-11.72c-7.18-1.58-11.76-8.75-10.18-15.92l0,0c1.58-7.18,8.75-11.76,15.92-10.18
				l53.25,11.72c7.18,1.58,11.76,8.75,10.18,15.92l0,0C555.84,541.55,548.68,546.14,541.5,544.56z"/>
		</g>
		<g class="st13">
			<path class="st7" d="M537.22,438.71l-53.25-11.72c-7.18-1.58-11.76-8.75-10.18-15.92v0c1.58-7.18,8.75-11.76,15.92-10.18
				l53.25,11.72c7.18,1.58,11.76,8.75,10.18,15.92v0C551.57,435.71,544.4,440.29,537.22,438.71z"/>
		</g>
		<g class="st13">
			<path class="st7" d="M558.63,394.95l-49.85-22.1c-6.72-2.98-9.78-10.91-6.8-17.63v0c2.98-6.72,10.91-9.78,17.63-6.8l49.85,22.1
				c6.72,2.98,9.78,10.91,6.8,17.63v0C573.29,394.87,565.35,397.93,558.63,394.95z"/>
		</g>
		<g class="st13">
			<path class="st7" d="M552.19,498.58l-53.25-11.72c-7.18-1.58-11.76-8.75-10.18-15.92v0c1.58-7.18,8.75-11.76,15.92-10.18
				l53.25,11.72c7.18,1.58,11.76,8.75,10.18,15.92l0,0C566.53,495.58,559.37,500.16,552.19,498.58z"/>
		</g>
	</g>
	<g class="st0">
		<defs>
			<path id="SVGID_13_" d="M571.2,351.9c147.55,133.65,15.29,194.55,83.4,186.04c59.87-7.48,25.76-83.1,25.76-83.1
				c0.23-27.57,10.41-64.53-10.79-90.11L571.2,351.9z"/>
		</defs>
		<use xlink:href="#SVGID_13_"  style="overflow:visible;fill:#DDE3E8;"/>
		<clipPath id="SVGID_14_">
			<use xlink:href="#SVGID_13_"  style="overflow:visible;"/>
		</clipPath>
		<g class="st14">
			<path class="st15" d="M557.07,363c0,0-80.87,18.84-54.28,201.67s169.49,83.4,169.49,83.4l14.2-220.4l-34.14-41.68L557.07,363z"/>
		</g>
	</g>
	<g class="st0">
		<path class="st4" d="M362.71,509.07c0,0-12.83,14.97-7.48,32.08c5.35,17.11,40.49,101.67,102.64,119.75
			c58.8,17.11,104.78,2.14,117.61-2.14c12.83-4.28,13.9-3.21-2.14-32.08c-16.04-28.87,6.77-57.56-55.6-17.11L362.71,509.07z"/>
	</g>
	<g class="st0">
		<path class="st16" d="M697.36,588.19l-28.67-29.4c4.35,12.09-116.74,72.16-116.74,72.16l0.29,1.49c-0.45,0.21-0.91,0.42-1.36,0.65
			c-10.73,5.29-23.1,8.33-19.25,16.04c0.95,1.89,2.57,2.68,4.53,2.77c-2.78,2.27-4.46,4.94-3.47,7.92c1.1,3.3,3.55,4.56,6.56,4.63
			c-2.02,1.81-3.07,3.84-2.29,6.06c1.02,2.91,3.76,3.81,6.98,3.71c-2.49,1.39-3.92,3.03-2.7,4.85c4.28,6.42,21.32,1.04,32.18-4.31
			c1.29-0.63,2.52-1.32,3.72-2.03C606.37,662.25,667.98,635.51,697.36,588.19z"/>
	</g>
	<g class="st0">
		<defs>
			<path id="SVGID_15_" d="M697.36,588.19l-28.67-29.4c4.35,12.09-116.74,72.16-116.74,72.16l0.29,1.49
				c-0.45,0.21-0.91,0.42-1.36,0.65c-10.73,5.29-23.1,8.33-19.25,16.04c0.95,1.89,2.57,2.68,4.53,2.77
				c-2.78,2.27-4.46,4.94-3.47,7.92c1.1,3.3,3.55,4.56,6.56,4.63c-2.02,1.81-3.07,3.84-2.29,6.06c1.02,2.91,3.76,3.81,6.98,3.71
				c-2.49,1.39-3.92,3.03-2.7,4.85c4.28,6.42,21.32,1.04,32.18-4.31c1.29-0.63,2.52-1.32,3.72-2.03
				C606.37,662.25,667.98,635.51,697.36,588.19z"/>
		</defs>
		<clipPath id="SVGID_16_">
			<use xlink:href="#SVGID_15_"  style="overflow:visible;"/>
		</clipPath>
		<g class="st17">
			<path class="st12" d="M523.09,651.27c49.18-8.55,132.58-49.18,153.26-76.73l-7.86-24.84l-142.92,78.21l-14.25,21.23
				L523.09,651.27z"/>
		</g>
	</g>
	<g class="st0">
		<path class="st2" d="M681.33,609.58c24.59-14.97,35.28-63.08,19.25-102.64c0,0,11.27,6.78-32.86,58.98
			C667.72,565.92,688.81,578.57,681.33,609.58z"/>
	</g>
	<g class="st0">
		<defs>
			<path id="SVGID_17_" d="M681.33,609.58c24.59-14.97,35.28-63.08,19.25-102.64c0,0,11.27,6.78-32.86,58.98
				C667.72,565.92,688.81,578.57,681.33,609.58z"/>
		</defs>
		<clipPath id="SVGID_18_">
			<use xlink:href="#SVGID_17_"  style="overflow:visible;"/>
		</clipPath>
		<g class="st18">
			<path class="st4" d="M697.36,531.53c-5.69,21.24-15.82,38.22-28.87,52.39l-12.6-17.46l31.85-43.48L697.36,531.53z"/>
		</g>
		<g class="st18">
			<path class="st4" d="M725.13,500.99c1.07,10.69,2.14,51.9-20.31,48.94c-22.45-2.96-4.28-46.8-4.28-46.8"/>
		</g>
	</g>
	<g class="st0">
		<path class="st5" d="M709.13,458.82c0,0,18.18,24.59,19.25,35.28c1.07,10.69,2.14,51.9-20.31,48.94
			c-22.45-2.96-4.28-46.8-4.28-46.8L709.13,458.82z"/>
	</g>
	<g class="st0">
		<defs>
			<path id="SVGID_19_" d="M709.13,458.82c0,0,18.18,24.59,19.25,35.28c1.07,10.69,2.14,51.9-20.31,48.94
				c-22.45-2.96-4.28-46.8-4.28-46.8L709.13,458.82z"/>
		</defs>
		<clipPath id="SVGID_20_">
			<use xlink:href="#SVGID_19_"  style="overflow:visible;"/>
		</clipPath>
		<g class="st19">

				<ellipse transform="matrix(0.3172 -0.9483 0.9483 0.3172 -25.0656 1051.364)" class="st9" cx="717.63" cy="543.09" rx="14.2" ry="10.59"/>
		</g>
		<g class="st19">

				<ellipse transform="matrix(0.3172 -0.9483 0.9483 0.3172 -29.961 1040.3926)" class="st9" cx="707.57" cy="541" rx="14.2" ry="11.96"/>
		</g>
		<g class="st19">

				<ellipse transform="matrix(0.3172 -0.9483 0.9483 0.3172 -36.1338 1028.598)" class="st9" cx="696.29" cy="539.39" rx="14.2" ry="12.04"/>
		</g>
	</g>
	<g class="st0">
		<path class="st16" d="M624.66,500.52c0,0,58.8-93.02,43.84-125.09c-13.48-28.9,18.18-22.45,18.18-22.45s27.96,24.59,26.73,65.22
			s-12.83,128.3-40.63,146.48C667.85,571.85,624.66,500.52,624.66,500.52z"/>
	</g>
	<g class="st0">
		<defs>
			<path id="SVGID_21_" d="M573.34,297.38c5.35,71.63,3.21,142.2-79.12,142.2c-64.15,0-87.67-47.04-93.02-103.71
				c-12.69-134.54,29.86-186.55,76.98-171.07C553.03,189.39,581.89,204.36,573.34,297.38z"/>
		</defs>
		<use xlink:href="#SVGID_21_"  style="overflow:visible;fill:#FFC4A6;"/>
		<clipPath id="SVGID_22_">
			<use xlink:href="#SVGID_21_"  style="overflow:visible;"/>
		</clipPath>
		<g class="st20">
			<path class="st12" d="M417.24,338c0,0,8.55,65.22,52.39,81.26c31.46,11.51,58.32,9.59,76.98-2.14
				c18.66-11.73,28.47-42.3,28.47-42.3l6.97,58.4l-84.93,16.45l-90.57-27.2C393.72,397.04,403.34,362.06,417.24,338z"/>
		</g>
		<g class="st20">
			<g>
				<path class="st12" d="M609.6,179.9c10.6-7.17,31.43-25.28,15.86-49.03c-20.31-31.01-65.22-7.48-65.22-7.48
					s40.63-36.35-39.56-23.52s-118.02,57.09-118.68,65.22c-0.13,1.64-0.52,4.61-0.83,8.4c-5.49-6.38-10.22-7.38-18.42-5.19
					c-48.11,12.83-25.66,135.79,20.31,175.34c0,0-14.97-28.87-2.14-26.73c12.8,2.13,13.9,9.59,22.4,20.25
					c-0.89-1.78-15.49-46.81-6.1-57.95c4.93-5.85,27.8-21.38,13.9-48.11c38.21,12.03,138.99,57.74,202.88-2.92
					C679.09,197.47,629.55,173.67,609.6,179.9z"/>
			</g>
			<g>
				<path class="st12" d="M421.25,329.73c-0.02-0.02-0.03-0.04-0.05-0.07C421.22,329.71,421.24,329.74,421.25,329.73z"/>
			</g>
		</g>
	</g>
	<g id="XMLID_4_" class="st0">
		<path class="st21" d="M410.83,220.87c0,0,137.92,49.94,212.77-1c50.25-31.96-17.11-55.94-29.94-41.95c0,0,41.7-19.98,21.38-48.95
			s-65.22-6.99-65.22-6.99s40.63-33.96-39.56-21.98s-118.02,53.34-118.68,60.93C390.92,168.53,384.1,205.88,410.83,220.87z"/>
	</g>
	<g class="st0">
		<defs>
			<path id="SVGID_23_" d="M410.83,220.87c0,0,137.92,49.94,212.77-1c50.25-31.96-17.11-55.94-29.94-41.95
				c0,0,41.7-19.98,21.38-48.95s-65.22-6.99-65.22-6.99s40.63-33.96-39.56-21.98s-118.02,53.34-118.68,60.93
				C390.92,168.53,384.1,205.88,410.83,220.87z"/>
		</defs>
		<clipPath id="SVGID_24_">
			<use xlink:href="#SVGID_23_"  style="overflow:visible;"/>
		</clipPath>
	</g>
	<g class="st0">
		<path class="st21" d="M413.68,327.55c-0.44,0.24-10.28-41.54-1.03-52.55c5.31-6.32,33.9-14.43,7.19-59.76s-28.21-55.03-45.2-50.49
			c-46.22,12.36-24.65,130.86,19.52,168.99c0,0-14.38-27.82-2.05-25.76C404.43,310.03,405.46,317.24,413.68,327.55z"/>
	</g>
	<g class="st0">
		<defs>
			<path id="SVGID_25_" d="M486.74,378.63c2.62,4.69,45.61,14.79,60.41-1.99c0,0,2.67,25.51-31.54,25.51
				C480.32,402.16,486.74,378.63,486.74,378.63z"/>
		</defs>
		<use xlink:href="#SVGID_25_"  style="overflow:visible;fill:#D1D3D4;"/>
		<clipPath id="SVGID_26_">
			<use xlink:href="#SVGID_25_"  style="overflow:visible;"/>
		</clipPath>
		<g class="st22">
			<path class="st9" d="M486.74,378.63c2.62,4.69,45.61,14.79,60.41-1.99c0,0,2.67,25.51-31.54,25.51
				C480.32,402.16,486.74,378.63,486.74,378.63z"/>
		</g>
		<g class="st22">
			<path class="st23" d="M486.74,387.19c2.62,4.69,45.61,14.79,60.41-1.99c0,0,2.67,25.51-31.54,25.51
				C480.32,410.71,486.74,387.19,486.74,387.19z"/>
		</g>
	</g>
	<g class="st0">
		<path class="st12" d="M528.43,356.18c1.28,1.28-1.33,11.44-10.94,12.72s-21.14-10.25-21.14-11.53s8.89,6.56,20.56,6.4
			C525.23,363.66,528.43,356.18,528.43,356.18z"/>
	</g>
	<g class="st0">

			<ellipse transform="matrix(0.9397 -0.3421 0.3421 0.9397 -91.2739 156.4411)" class="st16" cx="397.87" cy="336.98" rx="24.35" ry="43.84"/>
	</g>
	<g class="st0">
		<g>
			<path class="st21" d="M457.51,296.17c-0.6,0.13-1.23,0.16-1.87,0.06c-2.46-0.35-3.99-2.38-3.4-4.52
				c1.21-4.44,5.67-8.68,12.56-11.96c8.12-3.86,20.21-6.44,28.92-3.52c2.3,0.77,3.3,3.04,2.24,5.07c-1.06,2.03-3.78,3.05-6.09,2.28
				c-5.01-1.68-13.87-0.42-21.06,2.99c-4.18,1.99-7.11,4.45-7.65,6.42C460.73,294.59,459.25,295.8,457.51,296.17z"/>
		</g>
	</g>
	<g class="st0">
		<g>
			<path class="st21" d="M563.69,296.17c0.6,0.13,1.23,0.16,1.87,0.06c2.46-0.35,3.99-2.38,3.4-4.52
				c-1.21-4.44-5.67-8.68-12.56-11.96c-8.12-3.86-20.21-6.44-28.92-3.52c-2.3,0.77-3.3,3.04-2.24,5.07
				c1.06,2.03,3.78,3.05,6.09,2.28c5.01-1.68,13.87-0.42,21.06,2.99c4.18,1.99,7.11,4.45,7.65,6.42
				C560.47,294.59,561.94,295.8,563.69,296.17z"/>
		</g>
	</g>
	<g class="st0">
		<path class="st24" d="M645.78,488.82c-7.72,2.19-15.27,4.36-19.63,5.21c2.57-3.23,3.86-5.27,3.86-5.27
			C635.32,486.81,640.63,487.08,645.78,488.82z"/>
	</g>
	<g class="st0">
		<path class="st2" d="M692.02,539.01C658.87,622.41,516.67,647,516.67,647C390.51,658.76,300.5,514.42,387.3,428.88
			c22.57-5.86,63.08,13.9,66.29,33.14c4.28,99.43,84.46,75.91,84.46,75.91C575.48,531.53,607,515,617,504c3.25-0.47,5.59-0.49,9-1
			c13.43-2.01,23.04-3.34,32-8C675.92,509.19,692.02,539.01,692.02,539.01z"/>
	</g>
	<g class="st0">
		<defs>
			<path id="SVGID_27_" d="M692.02,539.01C658.87,622.41,516.67,647,516.67,647C390.51,658.76,300.5,514.42,387.3,428.88
				c22.57-5.86,63.08,13.9,66.29,33.14c4.28,99.43,84.46,75.91,84.46,75.91c37.42-6.42,61.74-17.99,76.61-31.66
				c3.25-0.47,6.59-0.97,10-1.49c13.43-2.01,24.85-4.06,33.81-8.72C676.39,510.26,692.02,539.01,692.02,539.01z"/>
		</defs>
		<clipPath id="SVGID_28_">
			<use xlink:href="#SVGID_27_"  style="overflow:visible;"/>
		</clipPath>
		<g id="XMLID_12_" class="st25">
			<path class="st4" d="M698.49,479.14c20.19,68.99-31.97,60.58-31.97,60.58s-30.23-12.96-26.05-42.66"/>
		</g>
		<g class="st25">
			<path class="st4" d="M346.67,506.93c28.87,96.23,120.82,120.82,156.1,119.75c35.28-1.07,114.4-25.66,153.96-65.22
				c39.56-39.56,32.08-51.32,32.08-51.32l11.57,51.84L599.76,639.4c0,0-130.61,12.59-131.65,15.15
				c-8.33,20.53-113.54-60.62-109.68-74.91L346.67,506.93z"/>
		</g>
	</g>
	<g class="st0">
		<path class="st4" d="M658.47,496.07c-8.96,4.66-20.38,6.71-33.81,8.72c-3.41,0.51-6.75,1.02-10,1.49
			c5.09-4.67,8.93-9.05,11.48-12.25c4.36-0.84,11.91-3.02,19.63-5.21C650.16,490.31,654.43,492.87,658.47,496.07z"/>
	</g>
	<g class="st0">
		<path class="st11" d="M625.73,494.1c0.14-0.02,0.27-0.05,0.42-0.07c-2.56,3.21-6.39,7.58-11.48,12.25
			c-39.51,5.77-67.64,7.91-75.54-20.73c-3.27-11.87-3.66-28.12,1.07-28.87c2.3-0.36,4.43,2.74,6.42,5.35
			c0,0,10.31,13.58,26.73,24.59C593.04,499.85,609.19,497.11,625.73,494.1z"/>
	</g>
	<g class="st0">
		<defs>
			<path id="SVGID_29_" d="M596.22,429.95l13.89,15.59c0,0,61.89-15.59,77.05,36.2s-24,45.47-24,45.47s-22.69-9.73-19.56-32.02
				c0,0-68.86,8.02-80.23,4.23c-11.37-3.79-26.52-12.63-25.26-44.21"/>
		</defs>
		<use xlink:href="#SVGID_29_"  style="overflow:visible;fill:#C4D3D9;"/>
		<clipPath id="SVGID_30_">
			<use xlink:href="#SVGID_29_"  style="overflow:visible;"/>
		</clipPath>
		<g class="st26">

				<ellipse transform="matrix(0.0134 -0.9999 0.9999 0.0134 149.2151 1202.2302)" class="st9" cx="683.83" cy="525.5" rx="18.18" ry="13.56"/>
		</g>
		<g class="st26">

				<ellipse transform="matrix(0.0134 -0.9999 0.9999 0.0134 134.9183 1190.5033)" class="st9" cx="670.74" cy="526.88" rx="18.18" ry="15.32"/>
		</g>
		<g class="st26">

				<ellipse transform="matrix(0.0134 -0.9999 0.9999 0.0134 118.2964 1178.5238)" class="st9" cx="656.35" cy="529.32" rx="18.18" ry="15.42"/>
		</g>
	</g>
	<g id="XMLID_10_" class="st0">
		<path class="st11" d="M596.22,429.95c1.35,1.13,2.68,2.27,3.99,3.44l1.96,1.75c0.33,0.29,0.62,0.61,0.89,0.96
			c0.28,0.33,0.57,0.65,0.86,0.98l6.95,7.79l-0.99-0.3c3.68-0.84,7.33-1.38,11.03-1.75c3.69-0.36,7.41-0.51,11.12-0.45
			c3.72,0.03,7.43,0.35,11.11,0.89l2.76,0.43c0.9,0.28,1.78,0.6,2.67,0.89l1.32,0.45l1.29,0.55c0.86,0.36,1.71,0.75,2.55,1.12
			l-2.75-0.4l-1.36-0.21l-1.37-0.14l-2.72-0.28l-2.68-0.44c-3.59-0.53-7.21-0.84-10.85-0.87c-3.63-0.06-7.28,0.09-10.9,0.44
			c-3.61,0.36-7.25,0.9-10.74,1.7l-0.6,0.14l-0.39-0.44l-6.95-7.79c-0.29-0.32-0.57-0.65-0.87-0.97c-0.31-0.31-0.6-0.63-0.85-0.99
			l-1.52-2.14C598.17,432.88,597.18,431.42,596.22,429.95z"/>
	</g>
	<g class="st0">
		<path class="st12" d="M495.29,328.38c-2.14,18.18-16.04,20.31-22.45,10.69C482.46,340.14,492.03,336.58,495.29,328.38z"/>
	</g>
	<g class="st0">
		<path class="st12" d="M525.23,328.38c2.14,18.18,16.04,20.31,22.45,10.69C538.06,340.14,528.49,336.58,525.23,328.38z"/>
	</g>
	<g class="st0">
		<defs>
			<ellipse id="SVGID_31_" cx="481.39" cy="321.97" rx="14.66" ry="21.38"/>
		</defs>
		<use xlink:href="#SVGID_31_"  style="overflow:visible;fill:#F1F2F2;"/>
		<clipPath id="SVGID_32_">
			<use xlink:href="#SVGID_31_"  style="overflow:visible;"/>
		</clipPath>
		<g class="st27">
			<ellipse class="st21" cx="484.6" cy="325.71" rx="11.65" ry="16.57"/>
		</g>
	</g>
	<g class="st0">
		<path class="st21" d="M468.11,312.88c0.52-2.97,1.7-5.91,3.68-8.36c0.97-1.24,2.16-2.32,3.52-3.2c1.37-0.86,2.93-1.45,4.57-1.69
			c1.64-0.2,3.33-0.07,4.88,0.47c1.54,0.54,2.97,1.37,4.15,2.43c2.39,2.1,3.96,4.89,4.78,7.79c-1.63-2.54-3.51-4.85-5.82-6.49
			c-2.3-1.61-5.03-2.5-7.7-2.08c-2.67,0.33-5.13,1.86-7.13,3.87C471.02,307.65,469.48,310.19,468.11,312.88z"/>
	</g>
	<g class="st0">
		<defs>
			<ellipse id="SVGID_33_" cx="539.13" cy="321.97" rx="14.66" ry="21.38"/>
		</defs>
		<use xlink:href="#SVGID_33_"  style="overflow:visible;fill:#F1F2F2;"/>
		<clipPath id="SVGID_34_">
			<use xlink:href="#SVGID_33_"  style="overflow:visible;"/>
		</clipPath>
		<g class="st28">
			<ellipse class="st21" cx="542.33" cy="325.71" rx="11.65" ry="16.57"/>
		</g>
	</g>
	<g class="st0">
		<path class="st21" d="M525.85,312.88c0.52-2.97,1.7-5.91,3.68-8.36c0.97-1.24,2.16-2.32,3.52-3.2c1.37-0.86,2.93-1.45,4.57-1.69
			c1.64-0.2,3.33-0.07,4.88,0.47c1.54,0.54,2.97,1.37,4.15,2.43c2.39,2.1,3.96,4.89,4.78,7.79c-1.63-2.54-3.51-4.85-5.82-6.49
			c-2.3-1.61-5.03-2.5-7.7-2.08c-2.67,0.33-5.13,1.86-7.13,3.87C528.75,307.65,527.21,310.19,525.85,312.88z"/>
	</g>
	<g class="st0">
		<ellipse class="st29" cx="556.23" cy="357.25" rx="14.97" ry="5.35"/>
	</g>
	<g class="st0">
		<ellipse class="st29" cx="463.22" cy="359.39" rx="14.97" ry="5.35"/>
	</g>
	<g class="st0">

			<ellipse transform="matrix(0.9397 -0.3421 0.3421 0.9397 -92.5245 159.084)" class="st12" cx="404.74" cy="341.85" rx="8.55" ry="16.6"/>
	</g>
	<g class="st0">
		<path class="st12" d="M411.36,346.56c-1.33,0-2.49-1-2.65-2.35c-1.42-11.69-12.99-33.11-19.95-34.31
			c-0.58-0.1-2.13-0.37-3.87,3.11c-0.66,1.32-2.26,1.86-3.59,1.2c-1.32-0.66-1.86-2.27-1.2-3.59c3.06-6.12,7.31-6.38,9.56-5.99
			c10.97,1.9,22.89,26.95,24.35,38.94c0.18,1.47-0.87,2.8-2.33,2.98C411.57,346.55,411.46,346.56,411.36,346.56z"/>
	</g>
	<g class="st0">
		<path class="st7" d="M614.38,284.04c2.51-1.4-36.6-50.26-48.39-47.5c-11.74,2.76-0.25,64.46-0.25,64.46L614.38,284.04z"/>
	</g>
	<g class="st0">
		<path class="st30" d="M609.93,281.04c1.75-1.56-34-45.72-42.69-42.1c-8.65,3.61,7.51,62.43,7.51,62.43L609.93,281.04z"/>
	</g>
	<g class="st0">
		<path class="st7" d="M645.55,284.04c-2.51-1.4,36.6-50.26,48.39-47.5c11.74,2.76,0.25,64.46,0.25,64.46L645.55,284.04z"/>
	</g>
	<g class="st0">
		<path class="st30" d="M650.01,281.04c-1.75-1.56,34-45.72,42.69-42.1c8.65,3.61-7.51,62.43-7.51,62.43L650.01,281.04z"/>
	</g>
	<g id="XMLID_1_" class="st0">
		<path class="st5" d="M708.98,314.69c0,25.47-46.13,68.49-78.97,68.49s-79.67-43.01-79.67-68.49c0-12.58,11.88-18.87,22.7-32.3
			c10.5-13.03,34.45-13.82,56.62-13.82c21.69,0,44.06,1.54,55.67,13.27C697.8,294.43,708.98,301.83,708.98,314.69z"/>
	</g>
	<g class="st0">
		<defs>
			<path id="SVGID_35_" d="M708.98,314.69c0,25.47-46.13,68.49-78.97,68.49s-79.67-43.01-79.67-68.49c0-12.58,11.88-18.87,22.7-32.3
				c10.5-13.03,34.45-13.82,56.62-13.82c21.69,0,44.06,1.54,55.67,13.27C697.8,294.43,708.98,301.83,708.98,314.69z"/>
		</defs>
		<clipPath id="SVGID_36_">
			<use xlink:href="#SVGID_35_"  style="overflow:visible;"/>
		</clipPath>
		<g class="st31">
			<path class="st7" d="M630.54,288.08L630.54,288.08c-3.72,0-6.3-4.7-5.82-9.63l2.09-21.24c0.18-1.78,1.85-3.12,3.73-3.12l0,0
				c1.88,0,3.55,1.34,3.73,3.12l2.09,21.24C636.84,283.38,634.26,288.08,630.54,288.08z"/>
		</g>
		<g class="st31">
			<path class="st7" d="M617.1,282.64L617.1,282.64c-2.51-0.83-3.73-4.52-2.84-7.68l3.8-13.62c0.32-1.14,1.6-1.66,2.87-1.24l0,0
				c1.27,0.42,2.25,1.68,2.17,2.9l-0.98,14.54C621.88,280.92,619.61,283.46,617.1,282.64z"/>
		</g>
		<g class="st31">
			<path class="st7" d="M644.06,282.64L644.06,282.64c2.51-0.83,3.73-4.52,2.84-7.68l-3.8-13.62c-0.32-1.14-1.6-1.66-2.87-1.24l0,0
				c-1.27,0.42-2.25,1.68-2.17,2.9l0.98,14.54C639.27,280.92,641.54,283.46,644.06,282.64z"/>
		</g>
	</g>
	<g class="st0">
		<defs>
			<path id="SVGID_37_" d="M544.15,323.38c0,0,30.86,16.34,44.25,15.55s29.9-13.16,29.9-13.16h23.43c0,0,16.28,14.07,31.58,14.35
				c15.31,0.28,38.27-17.94,38.27-17.94l-4.61,49.54l-58.77,18.97l-69.37-2.39L544.15,323.38z"/>
		</defs>
		<clipPath id="SVGID_38_">
			<use xlink:href="#SVGID_37_"  style="overflow:visible;"/>
		</clipPath>
		<g id="XMLID_2_" class="st32">
			<path class="st15" d="M708.98,314.69c0,25.47-46.13,68.49-78.97,68.49s-79.67-43.01-79.67-68.49c0-12.58,11.88-18.87,22.7-32.3
				c10.5-13.03,34.45-13.82,56.62-13.82c21.69,0,44.06,1.54,55.67,13.27C697.8,294.43,708.98,301.83,708.98,314.69z"/>
		</g>
		<g class="st32">
			<defs>
				<path id="SVGID_39_" d="M708.98,314.69c0,25.47-46.13,68.49-78.97,68.49s-79.67-43.01-79.67-68.49
					c0-12.58,11.88-18.87,22.7-32.3c10.5-13.03,34.45-13.82,56.62-13.82c21.69,0,44.06,1.54,55.67,13.27
					C697.8,294.43,708.98,301.83,708.98,314.69z"/>
			</defs>
			<clipPath id="SVGID_40_">
				<use xlink:href="#SVGID_39_"  style="overflow:visible;"/>
			</clipPath>
			<g class="st33">
				<path class="st34" d="M552.64,335.04c16.17,9.9,28.19,22.21,48.5,29.69s38.49,7.48,58.8,1.07
					c20.31-6.42,19.25-10.69,48.11-32.08l-9.62,50.25l-57.58,27.64l-65.03-22.25L552.64,335.04z"/>
			</g>
		</g>
	</g>
	<g class="st0">
		<path class="st5" d="M629.86,330.85c0,0-0.93,8.7-5.2,10.07c0,0,3.21,2.43,5.35,2.43s4.64-2.63,4.64-2.63
			C630.01,336.94,631.08,334.8,629.86,330.85z"/>
	</g>
	<g class="st0">
		<g>
			<path class="st21" d="M622.02,341.97c-2.09,0-4.46-0.65-6.47-1.87c-2.73-1.66-4.23-3.98-4.23-6.55c0-0.33,0.27-0.6,0.6-0.6
				s0.6,0.27,0.6,0.6c0,2.88,2.29,4.7,3.66,5.53c2.83,1.72,6.54,2.2,8.63,1.11c3.76-1.95,4.46-10.2,4.46-10.28
				c0.03-0.33,0.33-0.57,0.64-0.55c0.33,0.03,0.58,0.31,0.55,0.64c-0.03,0.37-0.76,8.99-5.1,11.25
				C624.43,341.73,623.28,341.97,622.02,341.97z"/>
		</g>
		<g>
			<path class="st21" d="M638.19,342.1c-1.4,0-2.73-0.28-3.82-0.84c-4.34-2.26-5.29-10.87-5.33-11.23c-0.04-0.33,0.2-0.62,0.53-0.66
				c0.32-0.03,0.62,0.2,0.66,0.53c0.01,0.08,0.93,8.34,4.7,10.3c2.23,1.16,5.85,0.85,8.42-0.71c1.76-1.07,3.86-3.17,3.86-7.13
				c0-0.33,0.27-0.6,0.6-0.6s0.6,0.27,0.6,0.6c0,3.52-1.57,6.42-4.43,8.16C642.25,341.55,640.16,342.1,638.19,342.1z"/>
		</g>
	</g>
	<g class="st0">
		<path class="st21" d="M642.11,321.26c-0.71-2.07-4.61-1.92-8.72,0.32c-1.35,0.74-2.55,1.61-3.53,2.53
			c-0.98-0.91-2.18-1.79-3.53-2.53c-4.11-2.25-8.01-2.39-8.72-0.32c-0.71,2.07,2.05,5.57,6.16,7.81c2.26,1.24,4.45,1.83,6.09,1.78
			c1.64,0.05,3.83-0.54,6.09-1.78C640.06,326.82,642.82,323.32,642.11,321.26z"/>
	</g>
	<g class="st0">

			<ellipse transform="matrix(0.4392 -0.8984 0.8984 0.4392 61.3925 710.43)" class="st9" cx="599.76" cy="306.04" rx="19.73" ry="18.54"/>
	</g>
	<g class="st0">
		<path class="st21" d="M581.4,311.04c-1.08-2.77-1.32-5.92-0.77-8.93c0.24-1.52,0.73-2.99,1.33-4.41c0.64-1.4,1.41-2.75,2.34-3.99
			c0.96-1.22,2.03-2.35,3.22-3.33c1.22-0.95,2.52-1.8,3.93-2.43c2.78-1.31,5.91-1.82,8.86-1.41c-2.91,0.59-5.6,1.58-7.98,3.06
			c-2.38,1.47-4.46,3.35-6.12,5.56c-1.68,2.19-2.95,4.71-3.77,7.39C581.61,305.22,581.3,308.07,581.4,311.04z"/>
	</g>
	<g class="st0">
		<circle class="st21" cx="603.95" cy="306.64" r="14.35"/>
	</g>
	<g class="st0">
		<g>

				<ellipse transform="matrix(0.8984 -0.4392 0.4392 0.8984 -67.2716 321.3232)" class="st9" cx="660.76" cy="306.04" rx="18.54" ry="19.73"/>
		</g>
		<g>
			<path class="st21" d="M679.12,311.04c0.1-2.97-0.22-5.82-1.04-8.51c-0.82-2.68-2.09-5.19-3.77-7.39
				c-1.66-2.21-3.74-4.09-6.12-5.56c-2.38-1.48-5.07-2.47-7.98-3.06c2.94-0.41,6.08,0.1,8.86,1.41c1.41,0.63,2.71,1.48,3.93,2.43
				c1.19,0.99,2.26,2.12,3.22,3.33c0.93,1.24,1.7,2.59,2.34,3.99c0.6,1.42,1.09,2.89,1.33,4.41
				C680.44,305.12,680.2,308.27,679.12,311.04z"/>
		</g>
		<g>
			<circle class="st21" cx="656.57" cy="306.64" r="14.35"/>
		</g>
	</g>
	<g class="st0">
		<circle class="st9" cx="474.44" cy="322.5" r="3.74"/>
	</g>
	<g class="st0">
		<circle class="st9" cx="532.18" cy="322.5" r="3.74"/>
	</g>
	<g class="st0">
		<path class="st21" d="M400.24,119.76c0,0-31.25,30.36-1.64,59.92C394.07,158.91,394.62,138.94,400.24,119.76z"/>
	</g>
	<g class="st0">
		<path class="st21" d="M373.79,144.37c0,0,0.18,28.71,27.75,28.11C389.59,165.16,380.34,155.79,373.79,144.37z"/>
	</g>
	<g class="st0">
		<g>
			<path class="st21" d="M596.2,330.52c-2.91,0.19-5.82,0.36-8.72,0.59c-2.9,0.24-5.8,0.48-8.69,0.8c-2.89,0.3-5.78,0.66-8.66,1.04
				c-2.89,0.38-5.76,0.82-8.66,1.23c2.81-0.78,5.67-1.4,8.55-1.93c2.87-0.54,5.77-0.93,8.68-1.25c2.91-0.3,5.82-0.52,8.75-0.59
				C590.36,330.33,593.28,330.33,596.2,330.52z"/>
		</g>
		<g>
			<path class="st21" d="M604.42,334.18c-4.91,0.73-9.8,1.56-14.66,2.56c-4.85,1-9.69,2.09-14.47,3.38
				c-4.8,1.22-9.55,2.63-14.29,4.09c-4.74,1.46-9.45,3.03-14.16,4.59c4.58-1.92,9.24-3.66,13.94-5.26c4.71-1.6,9.48-3.01,14.28-4.31
				c4.82-1.22,9.67-2.34,14.57-3.19C594.53,335.19,599.47,334.53,604.42,334.18z"/>
		</g>
		<g>
			<path class="st21" d="M600.77,337.83c-4.3,1.49-8.58,3.02-12.82,4.64c-4.24,1.63-8.46,3.29-12.63,5.1
				c-4.19,1.74-8.33,3.61-12.46,5.5c-4.13,1.89-8.24,3.84-12.35,5.78c3.94-2.27,7.97-4.39,12.05-6.41c4.08-2.02,8.23-3.9,12.41-5.71
				c4.21-1.74,8.44-3.43,12.75-4.92C592.01,340.32,596.36,338.96,600.77,337.83z"/>
		</g>
		<g>
			<path class="st21" d="M606.25,338.75c-2.81,1.58-5.63,3.13-8.41,4.73c-2.78,1.6-5.57,3.2-8.29,4.91
				c-2.76,1.64-5.46,3.39-8.15,5.13c-2.7,1.75-5.36,3.55-8.04,5.34c2.45-2.09,5.02-4.04,7.65-5.92c2.62-1.87,5.34-3.62,8.07-5.33
				c2.77-1.65,5.56-3.27,8.43-4.74C600.37,341.38,603.27,339.98,606.25,338.75z"/>
		</g>
	</g>
	<g class="st0">
		<g>
			<path class="st21" d="M662.75,330.52c2.92-0.19,5.84-0.19,8.76-0.11c2.92,0.07,5.84,0.29,8.75,0.59c2.91,0.32,5.8,0.71,8.68,1.25
				c2.87,0.53,5.73,1.14,8.55,1.93c-2.89-0.41-5.77-0.85-8.66-1.23c-2.89-0.37-5.77-0.74-8.66-1.04c-2.89-0.32-5.79-0.56-8.69-0.8
				C668.57,330.88,665.66,330.71,662.75,330.52z"/>
		</g>
		<g>
			<path class="st21" d="M654.52,334.18c4.96,0.36,9.89,1.01,14.79,1.87c4.9,0.85,9.75,1.96,14.57,3.19
				c4.8,1.29,9.57,2.7,14.28,4.31c4.7,1.6,9.36,3.34,13.94,5.26c-4.71-1.57-9.42-3.13-14.16-4.59c-4.74-1.46-9.49-2.87-14.29-4.09
				c-4.78-1.29-9.62-2.39-14.47-3.38C664.32,335.74,659.43,334.91,654.52,334.18z"/>
		</g>
		<g>
			<path class="st21" d="M658.18,337.83c4.41,1.13,8.76,2.49,13.06,3.99c4.3,1.49,8.54,3.18,12.75,4.92
				c4.18,1.81,8.33,3.68,12.41,5.71c4.08,2.02,8.11,4.14,12.05,6.41c-4.12-1.94-8.22-3.89-12.35-5.78
				c-4.13-1.89-8.27-3.76-12.46-5.5c-4.17-1.81-8.39-3.47-12.63-5.1C666.76,340.85,662.48,339.32,658.18,337.83z"/>
		</g>
		<g>
			<path class="st21" d="M652.69,338.75c2.98,1.24,5.88,2.63,8.75,4.11c2.87,1.48,5.66,3.1,8.43,4.74c2.73,1.71,5.45,3.46,8.07,5.33
				c2.62,1.87,5.19,3.83,7.65,5.92c-2.68-1.79-5.35-3.59-8.04-5.34c-2.7-1.75-5.39-3.49-8.15-5.13c-2.72-1.71-5.51-3.31-8.29-4.91
				C658.32,341.87,655.5,340.32,652.69,338.75z"/>
		</g>
	</g>
	<g class="st0">
		<g>
			<circle class="st21" cx="616.11" cy="334.8" r="1.07"/>
		</g>
		<g>
			<circle class="st21" cx="618.25" cy="331.59" r="1.07"/>
		</g>
		<g>
			<circle class="st21" cx="620.38" cy="334.8" r="1.07"/>
		</g>
	</g>
	<g class="st0">
		<g>
			<circle class="st21" cx="639.1" cy="332.99" r="1.07"/>
		</g>
		<g>
			<circle class="st21" cx="642.83" cy="331.99" r="1.07"/>
		</g>
		<g>
			<circle class="st21" cx="642.31" cy="335.81" r="1.07"/>
		</g>
	</g>
	<g class="st0">
		<circle class="st9" cx="593.12" cy="300.05" r="6.95"/>
	</g>
	<g class="st0">
		<circle class="st9" cx="605.95" cy="319.29" r="3.74"/>
	</g>
	<g class="st0">
		<circle class="st9" cx="650.86" cy="300.05" r="6.95"/>
	</g>
	<g class="st0">
		<circle class="st9" cx="663.69" cy="319.29" r="3.74"/>
	</g>
	<g class="st0">
		<g>
			<path class="st21" d="M441.76,939.45c1.2,4.34,3.3,8.18,5.92,11.6c0.69,0.83,1.31,1.7,2.06,2.48c0.73,0.79,1.42,1.61,2.24,2.31
				c0.8,0.72,1.52,1.52,2.38,2.17c0.84,0.67,1.63,1.4,2.54,1.99c6.92,5.12,15.04,8.59,23.94,9.66c-4.45,0.72-9.11,0.21-13.49-1.09
				c-4.39-1.31-8.55-3.41-12.24-6.15c-3.67-2.76-6.94-6.11-9.36-10.04C443.33,948.48,441.72,943.97,441.76,939.45z"/>
		</g>
		<g>
			<path class="st21" d="M425.77,939.45c1.46,7.06,4.09,13.76,8.12,19.51c4.01,5.74,9.25,10.54,15.22,14.18
				c2.96,1.86,6.12,3.41,9.38,4.72c3.25,1.35,6.63,2.37,10.05,3.25c6.87,1.7,13.98,2.51,21.19,2.75c-7.14,1.01-14.5,0.86-21.68-0.46
				c-3.6-0.63-7.14-1.64-10.59-2.89c-3.44-1.29-6.77-2.9-9.92-4.82c-3.13-1.96-6.08-4.22-8.72-6.81c-2.62-2.61-4.99-5.49-6.88-8.66
				C428.07,953.93,425.99,946.65,425.77,939.45z"/>
		</g>
	</g>
	<g class="st0">
		<g>
			<path class="st21" d="M740.91,821.21c5.27,0.08,10.32-1.07,15.03-2.95c1.17-0.51,2.36-0.95,3.47-1.56
				c1.13-0.59,2.28-1.11,3.34-1.82c1.07-0.68,2.2-1.26,3.21-2.04c1.03-0.75,2.11-1.42,3.05-2.27c2.02-1.54,3.89-3.27,5.67-5.09
				c0.86-0.94,1.8-1.81,2.59-2.81l1.2-1.48c0.4-0.5,0.85-0.96,1.2-1.49c3.07-4.09,5.61-8.59,7.48-13.51
				c-0.66,5.24-2.71,10.31-5.55,14.84c-0.69,1.15-1.51,2.21-2.29,3.3c-0.78,1.09-1.71,2.06-2.56,3.1c-1.81,1.98-3.78,3.82-5.88,5.5
				c-4.23,3.3-9.01,5.98-14.16,7.54C751.6,822.03,746.03,822.53,740.91,821.21z"/>
		</g>
		<g>
			<path class="st21" d="M736,839.33c8.43,0.62,16.88-0.24,24.68-3.02c7.79-2.76,14.89-7.24,20.87-12.9
				c3.02-2.8,5.77-5.92,8.26-9.22c2.52-3.29,4.72-6.82,6.76-10.45c4.02-7.3,7.07-15.15,9.45-23.27c-1.16,8.38-3.64,16.64-7.37,24.35
				c-1.84,3.87-4.07,7.55-6.55,11.06c-2.52,3.49-5.36,6.75-8.49,9.72c-3.17,2.93-6.62,5.58-10.35,7.78
				c-3.74,2.17-7.71,3.97-11.86,5.16C753.1,841.01,744.25,841.19,736,839.33z"/>
		</g>
	</g>
	<g class="st0">
		<g>
			<path class="st21" d="M721.29,341.12c2.45-4.31,3.81-8.97,4.41-13.7c0.11-1.19,0.3-2.36,0.3-3.56c0.03-1.19,0.13-2.38,0.03-3.57
				c-0.07-1.19-0.03-2.38-0.2-3.56c-0.14-1.18-0.2-2.38-0.46-3.54c-0.34-2.36-0.9-4.68-1.57-6.97c-0.37-1.13-0.65-2.3-1.11-3.41
				l-0.66-1.67c-0.22-0.56-0.39-1.14-0.67-1.67c-1.93-4.39-4.44-8.55-7.59-12.38c4.02,2.92,7.27,6.92,9.69,11.34
				c0.63,1.09,1.13,2.25,1.67,3.39c0.54,1.14,0.91,2.35,1.37,3.53c0.79,2.4,1.41,4.86,1.82,7.36c0.76,5,0.76,10.15-0.33,15.11
				C726.93,332.74,724.76,337.54,721.29,341.12z"/>
		</g>
		<g>
			<path class="st21" d="M733.91,353.47c4.35-6.66,7.5-13.99,8.78-21.65c1.3-7.65,0.88-15.51-1.03-23.01
				c-0.91-3.76-2.2-7.44-3.77-11c-1.53-3.58-3.42-7-5.45-10.34c-4.14-6.65-9.16-12.77-14.7-18.47c6.37,4.77,12.03,10.59,16.66,17.18
				c2.34,3.28,4.34,6.81,6.09,10.46c1.71,3.67,3.09,7.51,4.09,11.45c0.95,3.95,1.54,8,1.63,12.08c0.06,4.07-0.29,8.16-1.23,12.12
				C743.19,340.22,739.25,347.57,733.91,353.47z"/>
		</g>
	</g>
	<g class="st0">
		<g>
			<path class="st21" d="M625.9,134.67c-0.15-3.22-0.93-6.18-2.09-8.97c-1.19-2.78-2.74-5.37-4.57-7.76
				c-1.83-2.39-3.94-4.57-6.27-6.52c-2.36-1.93-4.94-3.6-7.83-5.02c3.23,0.21,6.39,1.39,9.19,3.11c2.82,1.71,5.29,3.98,7.3,6.61
				c2,2.63,3.57,5.63,4.4,8.84C626.87,128.14,627,131.62,625.9,134.67z"/>
		</g>
		<g>
			<path class="st21" d="M636.82,137.8c0.2-5.13-0.37-10.17-2.05-14.81c-1.67-4.63-4.3-8.85-7.63-12.45
				c-0.86-0.88-1.63-1.84-2.59-2.62c-0.93-0.81-1.81-1.68-2.82-2.4c-1.91-1.57-4-2.92-6.13-4.22c-4.29-2.55-8.93-4.58-13.75-6.34
				c5.11,0.54,10.16,2.01,14.86,4.28c1.21,0.5,2.32,1.21,3.45,1.86c1.16,0.62,2.2,1.43,3.29,2.16c1.11,0.72,2.06,1.64,3.07,2.49
				c1.03,0.82,1.9,1.84,2.83,2.77c1.77,1.97,3.34,4.13,4.66,6.43c0.36,0.56,0.61,1.18,0.89,1.78l0.83,1.81
				c0.51,1.22,0.85,2.52,1.26,3.77C638.37,127.43,638.25,132.87,636.82,137.8z"/>
		</g>
	</g>
	<g class="st0">
		<g>
			<path class="st21" d="M384.57,415.19c-8.18,2.03-15.45,6.33-21.68,11.69c-3.1,2.71-6,5.65-8.62,8.83
				c-2.64,3.16-5.05,6.51-7.19,10.04c-2.19,3.49-4.11,7.15-5.8,10.92c-1.73,3.75-3.13,7.64-4.36,11.59
				c-2.4,7.92-3.77,16.18-3.93,24.59c-1.09-8.35-0.37-16.96,1.67-25.21c0.99-4.14,2.39-8.17,4.02-12.11
				c1.66-3.92,3.63-7.72,5.85-11.36c4.51-7.23,10.11-13.86,16.88-19.1C368.13,419.86,376.15,415.99,384.57,415.19z"/>
		</g>
		<g>
			<path class="st21" d="M391.17,391c-13.33,2.65-25.88,8.43-36.28,16.86c-10.41,8.42-18.67,19.3-24.64,31.26
				c-3.03,5.97-5.5,12.23-7.49,18.64c-2.04,6.4-3.52,12.98-4.67,19.61c-1.11,6.64-1.84,13.36-2.19,20.11
				c-0.42,6.75-0.35,13.53-0.1,20.32c-1.75-13.47-1.89-27.23-0.02-40.79c0.89-6.78,2.35-13.5,4.27-20.08
				c1.96-6.58,4.46-13,7.53-19.16c3.12-6.13,6.8-12,11.12-17.37c4.34-5.35,9.26-10.26,14.77-14.39c5.49-4.16,11.53-7.56,17.9-10.1
				C377.74,393.44,384.41,391.72,391.17,391z"/>
		</g>
	</g>
</g>
</svg>
